<svg xmlns="http://www.w3.org/2000/svg" xmlns:xlink="http://www.w3.org/1999/xlink" contentStyleType="text/css" height="1107px" preserveAspectRatio="none" style="width:2469px;height:1107px;background:#FFFFFF;" version="1.1" viewBox="0 0 2469 1107" width="2469px" zoomAndPan="magnify"><defs/><g><!--class AppComponent--><g id="elem_AppComponent"><rect codeLine="3" fill="#F1F1F1" height="48" id="AppComponent" rx="2.5" ry="2.5" style="stroke:#181818;stroke-width:0.5;" width="140.6299" x="7" y="31.44"/><ellipse cx="22" cy="47.44" fill="#ADD1B2" rx="11" ry="11" style="stroke:#181818;stroke-width:1.0;"/><path d="M24.9688,53.0806 Q24.3906,53.3775 23.75,53.5181 Q23.1094,53.6744 22.4063,53.6744 Q19.9063,53.6744 18.5781,52.0338 Q17.2656,50.3775 17.2656,47.2525 Q17.2656,44.1275 18.5781,42.4713 Q19.9063,40.815 22.4063,40.815 Q23.1094,40.815 23.75,40.9713 Q24.4063,41.1275 24.9688,41.4244 L24.9688,44.1431 Q24.3438,43.565 23.75,43.2994 Q23.1563,43.0181 22.5313,43.0181 Q21.1875,43.0181 20.5,44.0963 Q19.8125,45.1588 19.8125,47.2525 Q19.8125,49.3463 20.5,50.4244 Q21.1875,51.4869 22.5313,51.4869 Q23.1563,51.4869 23.75,51.2213 Q24.3438,50.94 24.9688,50.3619 L24.9688,53.0806 Z " fill="#000000"/><text fill="#000000" font-family="sans-serif" font-size="14" lengthAdjust="spacing" textLength="108.6299" x="36" y="52.2867">AppComponent</text><line style="stroke:#181818;stroke-width:0.5;" x1="8" x2="146.6299" y1="63.44" y2="63.44"/><line style="stroke:#181818;stroke-width:0.5;" x1="8" x2="146.6299" y1="71.44" y2="71.44"/></g><!--class AuthService--><g id="elem_AuthService"><rect codeLine="6" fill="#F1F1F1" height="64.2969" id="AuthService" rx="2.5" ry="2.5" style="stroke:#181818;stroke-width:0.5;" width="452.0771" x="182.28" y="23.29"/><ellipse cx="361.7917" cy="39.29" fill="#ADD1B2" rx="11" ry="11" style="stroke:#181818;stroke-width:1.0;"/><path d="M364.7605,44.9306 Q364.1823,45.2275 363.5417,45.3681 Q362.9011,45.5244 362.198,45.5244 Q359.698,45.5244 358.3698,43.8837 Q357.0573,42.2275 357.0573,39.1025 Q357.0573,35.9775 358.3698,34.3212 Q359.698,32.665 362.198,32.665 Q362.9011,32.665 363.5417,32.8212 Q364.198,32.9775 364.7605,33.2744 L364.7605,35.9931 Q364.1355,35.415 363.5417,35.1494 Q362.948,34.8681 362.323,34.8681 Q360.9792,34.8681 360.2917,35.9462 Q359.6042,37.0087 359.6042,39.1025 Q359.6042,41.1962 360.2917,42.2744 Q360.9792,43.3369 362.323,43.3369 Q362.948,43.3369 363.5417,43.0712 Q364.1355,42.79 364.7605,42.2119 L364.7605,44.9306 Z " fill="#000000"/><text fill="#000000" font-family="sans-serif" font-size="14" lengthAdjust="spacing" textLength="84.5537" x="382.2917" y="44.1367">AuthService</text><line style="stroke:#181818;stroke-width:0.5;" x1="183.28" x2="633.3571" y1="55.29" y2="55.29"/><line style="stroke:#181818;stroke-width:0.5;" x1="183.28" x2="633.3571" y1="63.29" y2="63.29"/><ellipse cx="193.28" cy="76.9384" fill="#84BE84" rx="3" ry="3" style="stroke:#038048;stroke-width:1.0;"/><text fill="#000000" font-family="sans-serif" font-size="14" lengthAdjust="spacing" textLength="426.0771" x="202.28" y="80.2851">login(payload: AuthPayload): Observable&lt;{ token: string }&gt;</text></g><!--class AuthStore--><g id="elem_AuthStore"><rect codeLine="10" fill="#F1F1F1" height="162.0781" id="AuthStore" rx="2.5" ry="2.5" style="stroke:#181818;stroke-width:0.5;" width="374.8652" x="421.88" y="163.89"/><ellipse cx="570.0011" cy="179.89" fill="#ADD1B2" rx="11" ry="11" style="stroke:#181818;stroke-width:1.0;"/><path d="M572.9698,185.5306 Q572.3917,185.8275 571.7511,185.9681 Q571.1105,186.1244 570.4073,186.1244 Q567.9073,186.1244 566.5792,184.4838 Q565.2667,182.8275 565.2667,179.7025 Q565.2667,176.5775 566.5792,174.9213 Q567.9073,173.265 570.4073,173.265 Q571.1105,173.265 571.7511,173.4213 Q572.4073,173.5775 572.9698,173.8744 L572.9698,176.5931 Q572.3448,176.015 571.7511,175.7494 Q571.1573,175.4681 570.5323,175.4681 Q569.1886,175.4681 568.5011,176.5463 Q567.8136,177.6088 567.8136,179.7025 Q567.8136,181.7963 568.5011,182.8744 Q569.1886,183.9369 570.5323,183.9369 Q571.1573,183.9369 571.7511,183.6713 Q572.3448,183.39 572.9698,182.8119 L572.9698,185.5306 Z " fill="#000000"/><text fill="#000000" font-family="sans-serif" font-size="14" lengthAdjust="spacing" textLength="70.123" x="590.5011" y="184.7367">AuthStore</text><line style="stroke:#181818;stroke-width:0.5;" x1="422.88" x2="795.7452" y1="195.89" y2="195.89"/><rect fill="none" height="6" style="stroke:#C82930;stroke-width:1.0;" width="6" x="429.88" y="206.5384"/><text fill="#000000" font-family="sans-serif" font-size="14" lengthAdjust="spacing" textLength="193.0195" x="441.88" y="212.8851">token: signal&lt;string | null&gt;</text><rect fill="none" height="6" style="stroke:#C82930;stroke-width:1.0;" width="6" x="429.88" y="222.8353"/><text fill="#000000" font-family="sans-serif" font-size="14" lengthAdjust="spacing" textLength="269.377" x="441.88" y="229.182">isAuthenticated: computed&lt;boolean&gt;</text><rect fill="none" height="6" style="stroke:#C82930;stroke-width:1.0;" width="6" x="429.88" y="239.1322"/><text fill="#000000" font-family="sans-serif" font-size="14" lengthAdjust="spacing" textLength="348.8652" x="441.88" y="245.4789">tokenDecoded: computed&lt;TokenDecoded | null&gt;</text><line style="stroke:#181818;stroke-width:0.5;" x1="422.88" x2="795.7452" y1="252.7806" y2="252.7806"/><ellipse cx="432.88" cy="266.4291" fill="#84BE84" rx="3" ry="3" style="stroke:#038048;stroke-width:1.0;"/><text fill="#000000" font-family="sans-serif" font-size="14" lengthAdjust="spacing" textLength="241.9717" x="441.88" y="269.7757">setToken(token: string | null): void</text><ellipse cx="432.88" cy="282.7259" fill="#84BE84" rx="3" ry="3" style="stroke:#038048;stroke-width:1.0;"/><text fill="#000000" font-family="sans-serif" font-size="14" lengthAdjust="spacing" textLength="346.9648" x="441.88" y="286.0726">decodeToken(token: string): TokenDecoded | null</text><ellipse cx="432.88" cy="299.0228" fill="#84BE84" rx="3" ry="3" style="stroke:#038048;stroke-width:1.0;"/><text fill="#000000" font-family="sans-serif" font-size="14" lengthAdjust="spacing" textLength="236.7012" x="441.88" y="302.3695">login(payload: AuthPayload): void</text><ellipse cx="432.88" cy="315.3197" fill="#84BE84" rx="3" ry="3" style="stroke:#038048;stroke-width:1.0;"/><text fill="#000000" font-family="sans-serif" font-size="14" lengthAdjust="spacing" textLength="93.9873" x="441.88" y="318.6664">logout(): void</text></g><!--class DashboardService--><g id="elem_DashboardService"><rect codeLine="20" fill="#F1F1F1" height="80.5938" id="DashboardService" rx="2.5" ry="2.5" style="stroke:#181818;stroke-width:0.5;" width="580.3604" x="986.13" y="15.15"/><ellipse cx="1208.0895" cy="31.15" fill="#ADD1B2" rx="11" ry="11" style="stroke:#181818;stroke-width:1.0;"/><path d="M1211.0582,36.7906 Q1210.4801,37.0875 1209.8395,37.2281 Q1209.1988,37.3844 1208.4957,37.3844 Q1205.9957,37.3844 1204.6676,35.7438 Q1203.3551,34.0875 1203.3551,30.9625 Q1203.3551,27.8375 1204.6676,26.1813 Q1205.9957,24.525 1208.4957,24.525 Q1209.1988,24.525 1209.8395,24.6813 Q1210.4957,24.8375 1211.0582,25.1344 L1211.0582,27.8531 Q1210.4332,27.275 1209.8395,27.0094 Q1209.2457,26.7281 1208.6207,26.7281 Q1207.277,26.7281 1206.5895,27.8063 Q1205.902,28.8688 1205.902,30.9625 Q1205.902,33.0563 1206.5895,34.1344 Q1207.277,35.1969 1208.6207,35.1969 Q1209.2457,35.1969 1209.8395,34.9313 Q1210.4332,34.65 1211.0582,34.0719 L1211.0582,36.7906 Z " fill="#000000"/><text fill="#000000" font-family="sans-serif" font-size="14" lengthAdjust="spacing" textLength="127.9414" x="1228.5895" y="35.9967">DashboardService</text><line style="stroke:#181818;stroke-width:0.5;" x1="987.13" x2="1565.4904" y1="47.15" y2="47.15"/><line style="stroke:#181818;stroke-width:0.5;" x1="987.13" x2="1565.4904" y1="55.15" y2="55.15"/><ellipse cx="997.13" cy="68.7984" fill="#84BE84" rx="3" ry="3" style="stroke:#038048;stroke-width:1.0;"/><text fill="#000000" font-family="sans-serif" font-size="14" lengthAdjust="spacing" textLength="515.0537" x="1006.13" y="72.1451">getTicketSalesOverTime(): Observable&lt;{[key: string]: string | number}&gt;</text><ellipse cx="997.13" cy="85.0953" fill="#84BE84" rx="3" ry="3" style="stroke:#038048;stroke-width:1.0;"/><text fill="#000000" font-family="sans-serif" font-size="14" lengthAdjust="spacing" textLength="554.3604" x="1006.13" y="88.442">getAveragePriceByTicketType(): Observable&lt;{[key: string]: string | number}&gt;</text></g><!--class TicketsService--><g id="elem_TicketsService"><rect codeLine="25" fill="#F1F1F1" height="96.8906" id="TicketsService" rx="2.5" ry="2.5" style="stroke:#181818;stroke-width:0.5;" width="456.2881" x="1927.17" y="196.48"/><ellipse cx="2100.3721" cy="212.48" fill="#ADD1B2" rx="11" ry="11" style="stroke:#181818;stroke-width:1.0;"/><path d="M2103.3409,218.1206 Q2102.7628,218.4175 2102.1221,218.5581 Q2101.4815,218.7144 2100.7784,218.7144 Q2098.2784,218.7144 2096.9503,217.0738 Q2095.6378,215.4175 2095.6378,212.2925 Q2095.6378,209.1675 2096.9503,207.5113 Q2098.2784,205.855 2100.7784,205.855 Q2101.4815,205.855 2102.1221,206.0113 Q2102.7784,206.1675 2103.3409,206.4644 L2103.3409,209.1831 Q2102.7159,208.605 2102.1221,208.3394 Q2101.5284,208.0581 2100.9034,208.0581 Q2099.5596,208.0581 2098.8721,209.1363 Q2098.1846,210.1988 2098.1846,212.2925 Q2098.1846,214.3863 2098.8721,215.4644 Q2099.5596,216.5269 2100.9034,216.5269 Q2101.5284,216.5269 2102.1221,216.2613 Q2102.7159,215.98 2103.3409,215.4019 L2103.3409,218.1206 Z " fill="#000000"/><text fill="#000000" font-family="sans-serif" font-size="14" lengthAdjust="spacing" textLength="101.3838" x="2120.8721" y="217.3267">TicketsService</text><line style="stroke:#181818;stroke-width:0.5;" x1="1928.17" x2="2382.4581" y1="228.48" y2="228.48"/><line style="stroke:#181818;stroke-width:0.5;" x1="1928.17" x2="2382.4581" y1="236.48" y2="236.48"/><ellipse cx="1938.17" cy="250.1284" fill="#84BE84" rx="3" ry="3" style="stroke:#038048;stroke-width:1.0;"/><text fill="#000000" font-family="sans-serif" font-size="14" lengthAdjust="spacing" textLength="430.2881" x="1947.17" y="253.4751">getTickets(params: TicketListParams): Observable&lt;Ticket[]&gt;</text><ellipse cx="1938.17" cy="266.4253" fill="#84BE84" rx="3" ry="3" style="stroke:#038048;stroke-width:1.0;"/><text fill="#000000" font-family="sans-serif" font-size="14" lengthAdjust="spacing" textLength="281.1416" x="1947.17" y="269.772">getTicketDeals(): Observable&lt;Ticket[]&gt;</text><ellipse cx="1938.17" cy="282.7222" fill="#84BE84" rx="3" ry="3" style="stroke:#038048;stroke-width:1.0;"/><text fill="#000000" font-family="sans-serif" font-size="14" lengthAdjust="spacing" textLength="343.6221" x="1947.17" y="286.0689">createTicket(ticket: Ticket): Observable&lt;Ticket&gt;</text></g><!--class TicketListStore--><g id="elem_TicketListStore"><rect codeLine="31" fill="#F1F1F1" height="162.0781" id="TicketListStore" rx="2.5" ry="2.5" style="stroke:#181818;stroke-width:0.5;" width="354.7334" x="1825.95" y="938.12"/><ellipse cx="1947.0008" cy="954.12" fill="#ADD1B2" rx="11" ry="11" style="stroke:#181818;stroke-width:1.0;"/><path d="M1949.9695,959.7606 Q1949.3914,960.0575 1948.7508,960.1981 Q1948.1102,960.3544 1947.407,960.3544 Q1944.907,960.3544 1943.5789,958.7138 Q1942.2664,957.0575 1942.2664,953.9325 Q1942.2664,950.8075 1943.5789,949.1513 Q1944.907,947.495 1947.407,947.495 Q1948.1102,947.495 1948.7508,947.6513 Q1949.407,947.8075 1949.9695,948.1044 L1949.9695,950.8231 Q1949.3445,950.245 1948.7508,949.9794 Q1948.157,949.6981 1947.532,949.6981 Q1946.1883,949.6981 1945.5008,950.7763 Q1944.8133,951.8388 1944.8133,953.9325 Q1944.8133,956.0263 1945.5008,957.1044 Q1946.1883,958.1669 1947.532,958.1669 Q1948.157,958.1669 1948.7508,957.9013 Q1949.3445,957.62 1949.9695,957.0419 L1949.9695,959.7606 Z " fill="#000000"/><text fill="#000000" font-family="sans-serif" font-size="14" lengthAdjust="spacing" textLength="104.1318" x="1967.5008" y="958.9667">TicketListStore</text><line style="stroke:#181818;stroke-width:0.5;" x1="1826.95" x2="2179.6834" y1="970.12" y2="970.12"/><rect fill="none" height="6" style="stroke:#C82930;stroke-width:1.0;" width="6" x="1833.95" y="980.7684"/><text fill="#000000" font-family="sans-serif" font-size="14" lengthAdjust="spacing" textLength="158.8467" x="1845.95" y="987.1151">data: signal&lt;Ticket[]&gt;</text><rect fill="none" height="6" style="stroke:#C82930;stroke-width:1.0;" width="6" x="1833.95" y="997.0653"/><text fill="#000000" font-family="sans-serif" font-size="14" lengthAdjust="spacing" textLength="245.8818" x="1845.95" y="1003.412">params: signal&lt;TicketListParams&gt;</text><rect fill="none" height="6" style="stroke:#C82930;stroke-width:1.0;" width="6" x="1833.95" y="1013.3622"/><text fill="#000000" font-family="sans-serif" font-size="14" lengthAdjust="spacing" textLength="160.6924" x="1845.95" y="1019.7089">total: signal&lt;number&gt;</text><rect fill="none" height="6" style="stroke:#C82930;stroke-width:1.0;" width="6" x="1833.95" y="1029.6591"/><text fill="#000000" font-family="sans-serif" font-size="14" lengthAdjust="spacing" textLength="177.4336" x="1845.95" y="1036.0057">loaded: signal&lt;boolean&gt;</text><rect fill="none" height="6" style="stroke:#C82930;stroke-width:1.0;" width="6" x="1833.95" y="1045.9559"/><text fill="#000000" font-family="sans-serif" font-size="14" lengthAdjust="spacing" textLength="181.583" x="1845.95" y="1052.3026">loading: signal&lt;boolean&gt;</text><rect fill="none" height="6" style="stroke:#C82930;stroke-width:1.0;" width="6" x="1833.95" y="1062.2528"/><text fill="#000000" font-family="sans-serif" font-size="14" lengthAdjust="spacing" textLength="187.8174" x="1845.95" y="1068.5995">error: signal&lt;string | null&gt;</text><line style="stroke:#181818;stroke-width:0.5;" x1="1826.95" x2="2179.6834" y1="1075.9013" y2="1075.9013"/><ellipse cx="1836.95" cy="1089.5497" fill="#84BE84" rx="3" ry="3" style="stroke:#038048;stroke-width:1.0;"/><text fill="#000000" font-family="sans-serif" font-size="14" lengthAdjust="spacing" textLength="328.7334" x="1845.95" y="1092.8964">load(params: Partial&lt;TicketListParams&gt;): void</text></g><!--class SignInComponent--><g id="elem_SignInComponent"><rect codeLine="41" fill="#F1F1F1" height="96.8906" id="SignInComponent" rx="2.5" ry="2.5" style="stroke:#181818;stroke-width:0.5;" width="281.6777" x="669.48" y="7"/><ellipse cx="743.6602" cy="23" fill="#ADD1B2" rx="11" ry="11" style="stroke:#181818;stroke-width:1.0;"/><path d="M746.6289,28.6406 Q746.0508,28.9375 745.4102,29.0781 Q744.7696,29.2344 744.0664,29.2344 Q741.5664,29.2344 740.2383,27.5938 Q738.9258,25.9375 738.9258,22.8125 Q738.9258,19.6875 740.2383,18.0313 Q741.5664,16.375 744.0664,16.375 Q744.7696,16.375 745.4102,16.5313 Q746.0664,16.6875 746.6289,16.9844 L746.6289,19.7031 Q746.0039,19.125 745.4102,18.8594 Q744.8164,18.5781 744.1914,18.5781 Q742.8477,18.5781 742.1602,19.6563 Q741.4727,20.7188 741.4727,22.8125 Q741.4727,24.9063 742.1602,25.9844 Q742.8477,27.0469 744.1914,27.0469 Q744.8164,27.0469 745.4102,26.7813 Q746.0039,26.5 746.6289,25.9219 L746.6289,28.6406 Z " fill="#000000"/><text fill="#000000" font-family="sans-serif" font-size="14" lengthAdjust="spacing" textLength="124.8174" x="764.1602" y="27.8467">SignInComponent</text><line style="stroke:#181818;stroke-width:0.5;" x1="670.48" x2="950.1577" y1="39" y2="39"/><rect fill="none" height="6" style="stroke:#C82930;stroke-width:1.0;" width="6" x="677.48" y="49.6484"/><text fill="#000000" font-family="sans-serif" font-size="14" lengthAdjust="spacing" textLength="120.9961" x="689.48" y="55.9951">form: FormGroup</text><line style="stroke:#181818;stroke-width:0.5;" x1="670.48" x2="950.1577" y1="63.2969" y2="63.2969"/><ellipse cx="680.48" cy="76.9453" fill="#84BE84" rx="3" ry="3" style="stroke:#038048;stroke-width:1.0;"/><text fill="#000000" font-family="sans-serif" font-size="14" lengthAdjust="spacing" textLength="83.8223" x="689.48" y="80.292">login(): void</text><ellipse cx="680.48" cy="93.2422" fill="#84BE84" rx="3" ry="3" style="stroke:#038048;stroke-width:1.0;"/><text fill="#000000" font-family="sans-serif" font-size="14" lengthAdjust="spacing" textLength="255.6777" x="689.48" y="96.5889">clickEvent(event: MouseEvent): void</text></g><!--class DashboardComponent--><g id="elem_DashboardComponent"><rect codeLine="47" fill="#F1F1F1" height="48" id="DashboardComponent" rx="2.5" ry="2.5" style="stroke:#181818;stroke-width:0.5;" width="189.4795" x="1346.58" y="220.93"/><ellipse cx="1361.58" cy="236.93" fill="#ADD1B2" rx="11" ry="11" style="stroke:#181818;stroke-width:1.0;"/><path d="M1364.5488,242.5706 Q1363.9706,242.8675 1363.33,243.0081 Q1362.6894,243.1644 1361.9863,243.1644 Q1359.4863,243.1644 1358.1581,241.5238 Q1356.8456,239.8675 1356.8456,236.7425 Q1356.8456,233.6175 1358.1581,231.9613 Q1359.4863,230.305 1361.9863,230.305 Q1362.6894,230.305 1363.33,230.4613 Q1363.9863,230.6175 1364.5488,230.9144 L1364.5488,233.6331 Q1363.9238,233.055 1363.33,232.7894 Q1362.7363,232.5081 1362.1113,232.5081 Q1360.7675,232.5081 1360.08,233.5863 Q1359.3925,234.6488 1359.3925,236.7425 Q1359.3925,238.8363 1360.08,239.9144 Q1360.7675,240.9769 1362.1113,240.9769 Q1362.7363,240.9769 1363.33,240.7113 Q1363.9238,240.43 1364.5488,239.8519 L1364.5488,242.5706 Z " fill="#000000"/><text fill="#000000" font-family="sans-serif" font-size="14" lengthAdjust="spacing" textLength="157.4795" x="1375.58" y="241.7767">DashboardComponent</text><line style="stroke:#181818;stroke-width:0.5;" x1="1347.58" x2="1535.0595" y1="252.93" y2="252.93"/><line style="stroke:#181818;stroke-width:0.5;" x1="1347.58" x2="1535.0595" y1="260.93" y2="260.93"/></g><!--class DashboardChart--><g id="elem_DashboardChart"><rect codeLine="50" fill="#F1F1F1" height="178.375" id="DashboardChart" rx="2.5" ry="2.5" style="stroke:#181818;stroke-width:0.5;" width="384.2988" x="1084.17" y="385.97"/><ellipse cx="1214.733" cy="401.97" fill="#ADD1B2" rx="11" ry="11" style="stroke:#181818;stroke-width:1.0;"/><path d="M1217.7017,407.6106 Q1217.1236,407.9075 1216.483,408.0481 Q1215.8424,408.2044 1215.1392,408.2044 Q1212.6392,408.2044 1211.3111,406.5638 Q1209.9986,404.9075 1209.9986,401.7825 Q1209.9986,398.6575 1211.3111,397.0013 Q1212.6392,395.345 1215.1392,395.345 Q1215.8424,395.345 1216.483,395.5013 Q1217.1392,395.6575 1217.7017,395.9544 L1217.7017,398.6731 Q1217.0767,398.095 1216.483,397.8294 Q1215.8892,397.5481 1215.2642,397.5481 Q1213.9205,397.5481 1213.233,398.6263 Q1212.5455,399.6888 1212.5455,401.7825 Q1212.5455,403.8763 1213.233,404.9544 Q1213.9205,406.0169 1215.2642,406.0169 Q1215.8892,406.0169 1216.483,405.7513 Q1217.0767,405.47 1217.7017,404.8919 L1217.7017,407.6106 Z " fill="#000000"/><text fill="#000000" font-family="sans-serif" font-size="14" lengthAdjust="spacing" textLength="114.6729" x="1235.233" y="406.8167">DashboardChart</text><line style="stroke:#181818;stroke-width:0.5;" x1="1085.17" x2="1467.4688" y1="417.97" y2="417.97"/><rect fill="none" height="6" style="stroke:#C82930;stroke-width:1.0;" width="6" x="1092.17" y="428.6184"/><text fill="#000000" font-family="sans-serif" font-size="14" lengthAdjust="spacing" textLength="181.1387" x="1104.17" y="434.9651">chart: BaseChartDirective</text><rect fill="none" height="6" style="stroke:#C82930;stroke-width:1.0;" width="6" x="1092.17" y="444.9153"/><text fill="#000000" font-family="sans-serif" font-size="14" lengthAdjust="spacing" textLength="83.2139" x="1104.17" y="451.262">label: string</text><rect fill="none" height="6" style="stroke:#C82930;stroke-width:1.0;" width="6" x="1092.17" y="461.2122"/><text fill="#000000" font-family="sans-serif" font-size="14" lengthAdjust="spacing" textLength="229.6807" x="1104.17" y="467.5589">type: DashboardChartTypeEnum</text><rect fill="none" height="6" style="stroke:#C82930;stroke-width:1.0;" width="6" x="1092.17" y="477.5091"/><text fill="#000000" font-family="sans-serif" font-size="14" lengthAdjust="spacing" textLength="231.8545" x="1104.17" y="483.8557">data: signal&lt;ChartData&lt;'bar'&gt;&gt;</text><rect fill="none" height="6" style="stroke:#C82930;stroke-width:1.0;" width="6" x="1092.17" y="493.8059"/><text fill="#000000" font-family="sans-serif" font-size="14" lengthAdjust="spacing" textLength="181.583" x="1104.17" y="500.1526">loading: signal&lt;boolean&gt;</text><rect fill="none" height="6" style="stroke:#C82930;stroke-width:1.0;" width="6" x="1092.17" y="510.1028"/><text fill="#000000" font-family="sans-serif" font-size="14" lengthAdjust="spacing" textLength="187.8174" x="1104.17" y="516.4495">error: signal&lt;string | null&gt;</text><line style="stroke:#181818;stroke-width:0.5;" x1="1085.17" x2="1467.4688" y1="523.7513" y2="523.7513"/><ellipse cx="1095.17" cy="537.3997" fill="#84BE84" rx="3" ry="3" style="stroke:#038048;stroke-width:1.0;"/><text fill="#000000" font-family="sans-serif" font-size="14" lengthAdjust="spacing" textLength="79.6387" x="1104.17" y="540.7464">load(): void</text><ellipse cx="1095.17" cy="553.6966" fill="#84BE84" rx="3" ry="3" style="stroke:#038048;stroke-width:1.0;"/><text fill="#000000" font-family="sans-serif" font-size="14" lengthAdjust="spacing" textLength="358.2988" x="1104.17" y="557.0432">getDataByType(): Observable&lt;ChartData&lt;'bar'&gt;&gt;</text></g><!--class TicketDealsComponent--><g id="elem_TicketDealsComponent"><rect codeLine="61" fill="#F1F1F1" height="113.1875" id="TicketDealsComponent" rx="2.5" ry="2.5" style="stroke:#181818;stroke-width:0.5;" width="213.8174" x="1503.41" y="418.56"/><ellipse cx="1526.9749" cy="434.56" fill="#ADD1B2" rx="11" ry="11" style="stroke:#181818;stroke-width:1.0;"/><path d="M1529.9437,440.2006 Q1529.3656,440.4975 1528.7249,440.6381 Q1528.0843,440.7944 1527.3812,440.7944 Q1524.8812,440.7944 1523.5531,439.1538 Q1522.2406,437.4975 1522.2406,434.3725 Q1522.2406,431.2475 1523.5531,429.5913 Q1524.8812,427.935 1527.3812,427.935 Q1528.0843,427.935 1528.7249,428.0913 Q1529.3812,428.2475 1529.9437,428.5444 L1529.9437,431.2631 Q1529.3187,430.685 1528.7249,430.4194 Q1528.1312,430.1381 1527.5062,430.1381 Q1526.1624,430.1381 1525.4749,431.2163 Q1524.7874,432.2788 1524.7874,434.3725 Q1524.7874,436.4663 1525.4749,437.5444 Q1526.1624,438.6069 1527.5062,438.6069 Q1528.1312,438.6069 1528.7249,438.3413 Q1529.3187,438.06 1529.9437,437.4819 L1529.9437,440.2006 Z " fill="#000000"/><text fill="#000000" font-family="sans-serif" font-size="14" lengthAdjust="spacing" textLength="162.7842" x="1542.8783" y="439.4067">TicketDealsComponent</text><line style="stroke:#181818;stroke-width:0.5;" x1="1504.41" x2="1716.2274" y1="450.56" y2="450.56"/><rect fill="none" height="6" style="stroke:#C82930;stroke-width:1.0;" width="6" x="1511.41" y="461.2084"/><text fill="#000000" font-family="sans-serif" font-size="14" lengthAdjust="spacing" textLength="158.8467" x="1523.41" y="467.5551">data: signal&lt;Ticket[]&gt;</text><rect fill="none" height="6" style="stroke:#C82930;stroke-width:1.0;" width="6" x="1511.41" y="477.5053"/><text fill="#000000" font-family="sans-serif" font-size="14" lengthAdjust="spacing" textLength="181.583" x="1523.41" y="483.852">loading: signal&lt;boolean&gt;</text><rect fill="none" height="6" style="stroke:#C82930;stroke-width:1.0;" width="6" x="1511.41" y="493.8022"/><text fill="#000000" font-family="sans-serif" font-size="14" lengthAdjust="spacing" textLength="187.8174" x="1523.41" y="500.1489">error: signal&lt;string | null&gt;</text><line style="stroke:#181818;stroke-width:0.5;" x1="1504.41" x2="1716.2274" y1="507.4506" y2="507.4506"/><ellipse cx="1514.41" cy="521.0991" fill="#84BE84" rx="3" ry="3" style="stroke:#038048;stroke-width:1.0;"/><text fill="#000000" font-family="sans-serif" font-size="14" lengthAdjust="spacing" textLength="79.6387" x="1523.41" y="524.4457">load(): void</text></g><!--class TicketFiltersComponent--><g id="elem_TicketFiltersComponent"><rect codeLine="68" fill="#F1F1F1" height="96.8906" id="TicketFiltersComponent" rx="2.5" ry="2.5" style="stroke:#181818;stroke-width:0.5;" width="198.6123" x="1904.01" y="781.23"/><ellipse cx="1919.01" cy="797.23" fill="#ADD1B2" rx="11" ry="11" style="stroke:#181818;stroke-width:1.0;"/><path d="M1921.9788,802.8706 Q1921.4006,803.1675 1920.76,803.3081 Q1920.1194,803.4644 1919.4163,803.4644 Q1916.9163,803.4644 1915.5881,801.8238 Q1914.2756,800.1675 1914.2756,797.0425 Q1914.2756,793.9175 1915.5881,792.2613 Q1916.9163,790.605 1919.4163,790.605 Q1920.1194,790.605 1920.76,790.7613 Q1921.4163,790.9175 1921.9788,791.2144 L1921.9788,793.9331 Q1921.3538,793.355 1920.76,793.0894 Q1920.1663,792.8081 1919.5413,792.8081 Q1918.1975,792.8081 1917.51,793.8863 Q1916.8225,794.9488 1916.8225,797.0425 Q1916.8225,799.1363 1917.51,800.2144 Q1918.1975,801.2769 1919.5413,801.2769 Q1920.1663,801.2769 1920.76,801.0113 Q1921.3538,800.73 1921.9788,800.1519 L1921.9788,802.8706 Z " fill="#000000"/><text fill="#000000" font-family="sans-serif" font-size="14" lengthAdjust="spacing" textLength="166.6123" x="1933.01" y="802.0767">TicketFiltersComponent</text><line style="stroke:#181818;stroke-width:0.5;" x1="1905.01" x2="2101.6223" y1="813.23" y2="813.23"/><rect fill="none" height="6" style="stroke:#C82930;stroke-width:1.0;" width="6" x="1912.01" y="823.8784"/><text fill="#000000" font-family="sans-serif" font-size="14" lengthAdjust="spacing" textLength="120.9961" x="1924.01" y="830.2251">form: FormGroup</text><line style="stroke:#181818;stroke-width:0.5;" x1="1905.01" x2="2101.6223" y1="837.5269" y2="837.5269"/><ellipse cx="1915.01" cy="851.1753" fill="#84BE84" rx="3" ry="3" style="stroke:#038048;stroke-width:1.0;"/><text fill="#000000" font-family="sans-serif" font-size="14" lengthAdjust="spacing" textLength="115.5615" x="1924.01" y="854.522">onSearch(): void</text><ellipse cx="1915.01" cy="867.4722" fill="#84BE84" rx="3" ry="3" style="stroke:#038048;stroke-width:1.0;"/><text fill="#000000" font-family="sans-serif" font-size="14" lengthAdjust="spacing" textLength="106.8936" x="1924.01" y="870.8189">onReset(): void</text></g><!--class TicketListComponent--><g id="elem_TicketListComponent"><rect codeLine="74" fill="#F1F1F1" height="129.4844" id="TicketListComponent" rx="2.5" ry="2.5" style="stroke:#181818;stroke-width:0.5;" width="290.8926" x="1767.87" y="410.41"/><ellipse cx="1835.016" cy="426.41" fill="#ADD1B2" rx="11" ry="11" style="stroke:#181818;stroke-width:1.0;"/><path d="M1837.9847,432.0506 Q1837.4066,432.3475 1836.766,432.4881 Q1836.1254,432.6444 1835.4222,432.6444 Q1832.9222,432.6444 1831.5941,431.0038 Q1830.2816,429.3475 1830.2816,426.2225 Q1830.2816,423.0975 1831.5941,421.4413 Q1832.9222,419.785 1835.4222,419.785 Q1836.1254,419.785 1836.766,419.9413 Q1837.4222,420.0975 1837.9847,420.3944 L1837.9847,423.1131 Q1837.3597,422.535 1836.766,422.2694 Q1836.1722,421.9881 1835.5472,421.9881 Q1834.2035,421.9881 1833.516,423.0663 Q1832.8285,424.1288 1832.8285,426.2225 Q1832.8285,428.3163 1833.516,429.3944 Q1834.2035,430.4569 1835.5472,430.4569 Q1836.1722,430.4569 1836.766,430.1913 Q1837.3597,429.91 1837.9847,429.3319 L1837.9847,432.0506 Z " fill="#000000"/><text fill="#000000" font-family="sans-serif" font-size="14" lengthAdjust="spacing" textLength="148.1006" x="1855.516" y="431.2567">TicketListComponent</text><line style="stroke:#181818;stroke-width:0.5;" x1="1768.87" x2="2057.7626" y1="442.41" y2="442.41"/><rect fill="none" height="6" style="stroke:#C82930;stroke-width:1.0;" width="6" x="1775.87" y="453.0584"/><text fill="#000000" font-family="sans-serif" font-size="14" lengthAdjust="spacing" textLength="93.9736" x="1787.87" y="459.4051">data: Ticket[]</text><rect fill="none" height="6" style="stroke:#C82930;stroke-width:1.0;" width="6" x="1775.87" y="469.3553"/><text fill="#000000" font-family="sans-serif" font-size="14" lengthAdjust="spacing" textLength="127.5107" x="1787.87" y="475.702">pageSize: number</text><rect fill="none" height="6" style="stroke:#C82930;stroke-width:1.0;" width="6" x="1775.87" y="485.6522"/><text fill="#000000" font-family="sans-serif" font-size="14" lengthAdjust="spacing" textLength="98.7725" x="1787.87" y="491.9989">page: number</text><rect fill="none" height="6" style="stroke:#C82930;stroke-width:1.0;" width="6" x="1775.87" y="501.9491"/><text fill="#000000" font-family="sans-serif" font-size="14" lengthAdjust="spacing" textLength="95.8193" x="1787.87" y="508.2957">total: number</text><line style="stroke:#181818;stroke-width:0.5;" x1="1768.87" x2="2057.7626" y1="515.5975" y2="515.5975"/><ellipse cx="1778.87" cy="529.2459" fill="#84BE84" rx="3" ry="3" style="stroke:#038048;stroke-width:1.0;"/><text fill="#000000" font-family="sans-serif" font-size="14" lengthAdjust="spacing" textLength="264.8926" x="1787.87" y="532.5926">onPagination(event: PageEvent): void</text></g><!--class TicketCardComponent--><g id="elem_TicketCardComponent"><rect codeLine="82" fill="#F1F1F1" height="64.2969" id="TicketCardComponent" rx="2.5" ry="2.5" style="stroke:#181818;stroke-width:0.5;" width="188.625" x="1501" y="640.64"/><ellipse cx="1516" cy="656.64" fill="#ADD1B2" rx="11" ry="11" style="stroke:#181818;stroke-width:1.0;"/><path d="M1518.9688,662.2806 Q1518.3906,662.5775 1517.75,662.7181 Q1517.1094,662.8744 1516.4063,662.8744 Q1513.9063,662.8744 1512.5781,661.2338 Q1511.2656,659.5775 1511.2656,656.4525 Q1511.2656,653.3275 1512.5781,651.6713 Q1513.9063,650.015 1516.4063,650.015 Q1517.1094,650.015 1517.75,650.1713 Q1518.4063,650.3275 1518.9688,650.6244 L1518.9688,653.3431 Q1518.3438,652.765 1517.75,652.4994 Q1517.1563,652.2181 1516.5313,652.2181 Q1515.1875,652.2181 1514.5,653.2963 Q1513.8125,654.3588 1513.8125,656.4525 Q1513.8125,658.5463 1514.5,659.6244 Q1515.1875,660.6869 1516.5313,660.6869 Q1517.1563,660.6869 1517.75,660.4213 Q1518.3438,660.14 1518.9688,659.5619 L1518.9688,662.2806 Z " fill="#000000"/><text fill="#000000" font-family="sans-serif" font-size="14" lengthAdjust="spacing" textLength="156.625" x="1530" y="661.4867">TicketCardComponent</text><line style="stroke:#181818;stroke-width:0.5;" x1="1502" x2="1688.625" y1="672.64" y2="672.64"/><rect fill="none" height="6" style="stroke:#C82930;stroke-width:1.0;" width="6" x="1509" y="683.2884"/><text fill="#000000" font-family="sans-serif" font-size="14" lengthAdjust="spacing" textLength="90.8018" x="1521" y="689.6351">ticket: Ticket</text><line style="stroke:#181818;stroke-width:0.5;" x1="1502" x2="1688.625" y1="696.9369" y2="696.9369"/></g><!--class CreateTicketComponent--><g id="elem_CreateTicketComponent"><rect codeLine="86" fill="#F1F1F1" height="96.8906" id="CreateTicketComponent" rx="2.5" ry="2.5" style="stroke:#181818;stroke-width:0.5;" width="253.6162" x="2208.51" y="426.71"/><ellipse cx="2246.5329" cy="442.71" fill="#ADD1B2" rx="11" ry="11" style="stroke:#181818;stroke-width:1.0;"/><path d="M2249.5017,448.3506 Q2248.9236,448.6475 2248.2829,448.7881 Q2247.6423,448.9444 2246.9392,448.9444 Q2244.4392,448.9444 2243.1111,447.3038 Q2241.7986,445.6475 2241.7986,442.5225 Q2241.7986,439.3975 2243.1111,437.7413 Q2244.4392,436.085 2246.9392,436.085 Q2247.6423,436.085 2248.2829,436.2413 Q2248.9392,436.3975 2249.5017,436.6944 L2249.5017,439.4131 Q2248.8767,438.835 2248.2829,438.5694 Q2247.6892,438.2881 2247.0642,438.2881 Q2245.7204,438.2881 2245.0329,439.3663 Q2244.3454,440.4288 2244.3454,442.5225 Q2244.3454,444.6163 2245.0329,445.6944 Q2245.7204,446.7569 2247.0642,446.7569 Q2247.6892,446.7569 2248.2829,446.4913 Q2248.8767,446.21 2249.5017,445.6319 L2249.5017,448.3506 Z " fill="#000000"/><text fill="#000000" font-family="sans-serif" font-size="14" lengthAdjust="spacing" textLength="170.4541" x="2265.6492" y="447.5567">CreateTicketComponent</text><line style="stroke:#181818;stroke-width:0.5;" x1="2209.51" x2="2461.1262" y1="458.71" y2="458.71"/><rect fill="none" height="6" style="stroke:#C82930;stroke-width:1.0;" width="6" x="2216.51" y="469.3584"/><text fill="#000000" font-family="sans-serif" font-size="14" lengthAdjust="spacing" textLength="120.9961" x="2228.51" y="475.7051">form: FormGroup</text><line style="stroke:#181818;stroke-width:0.5;" x1="2209.51" x2="2461.1262" y1="483.0069" y2="483.0069"/><ellipse cx="2219.51" cy="496.6553" fill="#84BE84" rx="3" ry="3" style="stroke:#038048;stroke-width:1.0;"/><text fill="#000000" font-family="sans-serif" font-size="14" lengthAdjust="spacing" textLength="101.5205" x="2228.51" y="500.002">onSave(): void</text><ellipse cx="2219.51" cy="512.9522" fill="#84BE84" rx="3" ry="3" style="stroke:#038048;stroke-width:1.0;"/><text fill="#000000" font-family="sans-serif" font-size="14" lengthAdjust="spacing" textLength="227.6162" x="2228.51" y="516.2989">createTicket(ticket: Ticket): void</text></g><!--class TicketsComponent--><g id="elem_TicketsComponent"><rect codeLine="92" fill="#F1F1F1" height="96.8906" id="TicketsComponent" rx="2.5" ry="2.5" style="stroke:#181818;stroke-width:0.5;" width="377.7979" x="1724.42" y="624.34"/><ellipse cx="1843.608" cy="640.34" fill="#ADD1B2" rx="11" ry="11" style="stroke:#181818;stroke-width:1.0;"/><path d="M1846.5767,645.9806 Q1845.9986,646.2775 1845.358,646.4181 Q1844.7174,646.5744 1844.0142,646.5744 Q1841.5142,646.5744 1840.1861,644.9338 Q1838.8736,643.2775 1838.8736,640.1525 Q1838.8736,637.0275 1840.1861,635.3713 Q1841.5142,633.715 1844.0142,633.715 Q1844.7174,633.715 1845.358,633.8713 Q1846.0142,634.0275 1846.5767,634.3244 L1846.5767,637.0431 Q1845.9517,636.465 1845.358,636.1994 Q1844.7642,635.9181 1844.1392,635.9181 Q1842.7955,635.9181 1842.108,636.9963 Q1841.4205,638.0588 1841.4205,640.1525 Q1841.4205,642.2463 1842.108,643.3244 Q1842.7955,644.3869 1844.1392,644.3869 Q1844.7642,644.3869 1845.358,644.1213 Q1845.9517,643.84 1846.5767,643.2619 L1846.5767,645.9806 Z " fill="#000000"/><text fill="#000000" font-family="sans-serif" font-size="14" lengthAdjust="spacing" textLength="130.9219" x="1864.108" y="645.1867">TicketsComponent</text><line style="stroke:#181818;stroke-width:0.5;" x1="1725.42" x2="2101.2179" y1="656.34" y2="656.34"/><rect fill="none" height="6" style="stroke:#C82930;stroke-width:1.0;" width="6" x="1732.42" y="666.9884"/><text fill="#000000" font-family="sans-serif" font-size="14" lengthAdjust="spacing" textLength="149.0166" x="1744.42" y="673.3351">store: TicketListStore</text><line style="stroke:#181818;stroke-width:0.5;" x1="1725.42" x2="2101.2179" y1="680.6369" y2="680.6369"/><ellipse cx="1735.42" cy="694.2853" fill="#84BE84" rx="3" ry="3" style="stroke:#038048;stroke-width:1.0;"/><text fill="#000000" font-family="sans-serif" font-size="14" lengthAdjust="spacing" textLength="264.8926" x="1744.42" y="697.632">onPagination(event: PageEvent): void</text><ellipse cx="1735.42" cy="710.5822" fill="#84BE84" rx="3" ry="3" style="stroke:#038048;stroke-width:1.0;"/><text fill="#000000" font-family="sans-serif" font-size="14" lengthAdjust="spacing" textLength="351.7979" x="1744.42" y="713.9289">onSearch(event: Partial&lt;TicketListParams&gt;): void</text></g><!--class RouterOutlet--><g id="elem_RouterOutlet"><rect fill="#F1F1F1" height="48" id="RouterOutlet" rx="2.5" ry="2.5" style="stroke:#181818;stroke-width:0.5;" width="122.3984" x="16.12" y="220.93"/><ellipse cx="31.12" cy="236.93" fill="#ADD1B2" rx="11" ry="11" style="stroke:#181818;stroke-width:1.0;"/><path d="M34.0888,242.5706 Q33.5106,242.8675 32.87,243.0081 Q32.2294,243.1644 31.5262,243.1644 Q29.0262,243.1644 27.6981,241.5238 Q26.3856,239.8675 26.3856,236.7425 Q26.3856,233.6175 27.6981,231.9613 Q29.0262,230.305 31.5262,230.305 Q32.2294,230.305 32.87,230.4613 Q33.5263,230.6175 34.0888,230.9144 L34.0888,233.6331 Q33.4638,233.055 32.87,232.7894 Q32.2763,232.5081 31.6512,232.5081 Q30.3075,232.5081 29.62,233.5863 Q28.9325,234.6488 28.9325,236.7425 Q28.9325,238.8363 29.62,239.9144 Q30.3075,240.9769 31.6512,240.9769 Q32.2763,240.9769 32.87,240.7113 Q33.4638,240.43 34.0888,239.8519 L34.0888,242.5706 Z " fill="#000000"/><text fill="#000000" font-family="sans-serif" font-size="14" lengthAdjust="spacing" textLength="90.3984" x="45.12" y="241.7767">RouterOutlet</text><line style="stroke:#181818;stroke-width:0.5;" x1="17.12" x2="137.5184" y1="252.93" y2="252.93"/><line style="stroke:#181818;stroke-width:0.5;" x1="17.12" x2="137.5184" y1="260.93" y2="260.93"/></g><!--link AppComponent to RouterOutlet--><g id="link_AppComponent_RouterOutlet"><path codeLine="98" d="M77.31,79.81 C77.31,115.83 77.31,178.54 77.31,214.56 " fill="none" id="AppComponent-to-RouterOutlet" style="stroke:#181818;stroke-width:1.0;"/><polygon fill="#181818" points="77.31,220.56,81.31,211.56,77.31,215.56,73.31,211.56,77.31,220.56" style="stroke:#181818;stroke-width:1.0;"/></g><!--link AuthService to AuthStore--><g id="link_AuthService_AuthStore"><path codeLine="100" d="M441.96,87.82 C464.2,108.57 490.0422,132.6777 518.7022,159.4077 " fill="none" id="AuthService-to-AuthStore" style="stroke:#181818;stroke-width:1.0;"/><polygon fill="#181818" points="523.09,163.5,519.2365,154.4363,519.4335,160.0897,513.7801,160.2867,523.09,163.5" style="stroke:#181818;stroke-width:1.0;"/></g><!--link DashboardService to DashboardChart--><g id="link_DashboardService_DashboardChart"><path codeLine="101" d="M1268.45,96.12 C1263.05,162.2 1261.892,290.3747 1265.442,379.7847 " fill="none" id="DashboardService-to-DashboardChart" style="stroke:#181818;stroke-width:1.0;"/><polygon fill="#181818" points="1265.68,385.78,1269.3198,376.6284,1265.4816,380.7839,1261.3261,376.9458,1265.68,385.78" style="stroke:#181818;stroke-width:1.0;"/></g><!--link DashboardChart to DashboardService--><g id="link_DashboardChart_DashboardService"><path codeLine="111" d="M1287.58,385.78 C1291.34,296.37 1290.8774,168.1776 1285.1574,102.0976 " fill="none" id="DashboardChart-to-DashboardService" style="stroke:#181818;stroke-width:1.0;"/><polygon fill="#181818" points="1284.64,96.12,1281.4311,105.4314,1285.0712,101.1014,1289.4013,104.7415,1284.64,96.12" style="stroke:#181818;stroke-width:1.0;"/></g><!--link DashboardService to DashboardComponent--><g id="link_DashboardService_DashboardComponent"><path codeLine="102" d="M1311.31,96.2 C1344.51,133.93 1389.3259,184.856 1416.7159,215.976 " fill="none" id="DashboardService-to-DashboardComponent" style="stroke:#181818;stroke-width:1.0;"/><polygon fill="#181818" points="1420.68,220.48,1417.7365,211.0813,1417.3766,216.7267,1411.7312,216.3668,1420.68,220.48" style="stroke:#181818;stroke-width:1.0;"/></g><!--link TicketsService to TicketListStore--><g id="link_TicketsService_TicketListStore"><path codeLine="103" d="M2162.55,293.68 C2176.91,402.11 2201.07,673.35 2120.31,878.12 C2112,899.19 2102.8882,914.6797 2088.7582,932.8897 " fill="none" id="TicketsService-to-TicketListStore" style="stroke:#181818;stroke-width:1.0;"/><polygon fill="#181818" points="2085.08,937.63,2093.7576,932.9717,2088.1452,933.6797,2087.4371,928.0674,2085.08,937.63" style="stroke:#181818;stroke-width:1.0;"/></g><!--link TicketsService to TicketDealsComponent--><g id="link_TicketsService_TicketDealsComponent"><path codeLine="104" d="M1989.32,293.83 C1914.67,317.76 1826.44,349.43 1750.31,385.97 C1730.89,395.29 1715.9371,403.5708 1697.2871,415.0708 " fill="none" id="TicketsService-to-TicketDealsComponent" style="stroke:#181818;stroke-width:1.0;"/><polygon fill="#181818" points="1692.18,418.22,1701.9401,416.901,1696.4359,415.5957,1697.7412,410.0915,1692.18,418.22" style="stroke:#181818;stroke-width:1.0;"/></g><!--link TicketsService to TicketListComponent--><g id="link_TicketsService_TicketListComponent"><path codeLine="105" d="M2104.58,293.77 C2068.83,327.49 2024.9047,368.913 1985.7947,405.803 " fill="none" id="TicketsService-to-TicketListComponent" style="stroke:#181818;stroke-width:1.0;"/><polygon fill="#181818" points="1981.43,409.92,1990.7217,406.6544,1985.0673,406.4892,1985.2324,400.8348,1981.43,409.92" style="stroke:#181818;stroke-width:1.0;"/></g><!--link TicketsService to CreateTicketComponent--><g id="link_TicketsService_CreateTicketComponent"><path codeLine="106" d="M2182.44,293.77 C2210.3,332.72 2249.5417,382.8961 2283.1117,421.8261 " fill="none" id="TicketsService-to-CreateTicketComponent" style="stroke:#181818;stroke-width:1.0;"/><polygon fill="#181818" points="2287.03,426.37,2284.1818,416.942,2283.7648,422.5834,2278.1233,422.1663,2287.03,426.37" style="stroke:#181818;stroke-width:1.0;"/></g><!--link CreateTicketComponent to TicketsService--><g id="link_CreateTicketComponent_TicketsService"><path codeLine="116" d="M2308.85,426.37 C2281.18,387.44 2241.9591,337.2545 2208.2091,298.3045 " fill="none" id="CreateTicketComponent-to-TicketsService" style="stroke:#181818;stroke-width:1.0;"/><polygon fill="#181818" points="2204.28,293.77,2207.1507,303.1912,2207.5543,297.5488,2213.1967,297.9524,2204.28,293.77" style="stroke:#181818;stroke-width:1.0;"/></g><!--link SignInComponent to AuthStore--><g id="link_SignInComponent_AuthStore"><path codeLine="108" d="M759.07,104.24 C739.77,122.25 721.6281,139.168 699.9881,159.348 " fill="none" id="SignInComponent-to-AuthStore" style="stroke:#181818;stroke-width:1.0;"/><polygon fill="#181818" points="695.6,163.44,704.9101,160.2273,699.2567,160.03,699.4541,154.3766,695.6,163.44" style="stroke:#181818;stroke-width:1.0;"/></g><!--link DashboardComponent to DashboardChart--><g id="link_DashboardComponent_DashboardChart"><path codeLine="109" d="M1424.59,269.07 C1404.84,296.38 1374.3456,338.5579 1343.8756,380.6979 " fill="none" id="DashboardComponent-to-DashboardChart" style="stroke:#181818;stroke-width:1.0;"/><polygon fill="#181818" points="1340.36,385.56,1348.8749,380.6106,1343.2897,381.5082,1342.392,375.923,1340.36,385.56" style="stroke:#181818;stroke-width:1.0;"/></g><!--link DashboardComponent to TicketDealsComponent--><g id="link_DashboardComponent_TicketDealsComponent"><path codeLine="110" d="M1458.45,269.07 C1484.13,303.74 1529.7891,365.4083 1565.2491,413.2883 " fill="none" id="DashboardComponent-to-TicketDealsComponent" style="stroke:#181818;stroke-width:1.0;"/><polygon fill="#181818" points="1568.82,418.11,1566.678,408.4969,1565.8442,414.0919,1560.2492,413.2581,1568.82,418.11" style="stroke:#181818;stroke-width:1.0;"/></g><!--link TicketDealsComponent to TicketCardComponent--><g id="link_TicketDealsComponent_TicketCardComponent"><path codeLine="112" d="M1606.02,532.21 C1603.32,567.33 1600.4084,605.2975 1598.1784,634.3975 " fill="none" id="TicketDealsComponent-to-TicketCardComponent" style="stroke:#181818;stroke-width:1.0;"/><polygon fill="#181818" points="1597.72,640.38,1602.396,631.7119,1598.102,635.3946,1594.4194,631.1007,1597.72,640.38" style="stroke:#181818;stroke-width:1.0;"/></g><!--link TicketFiltersComponent to TicketListStore--><g id="link_TicketFiltersComponent_TicketListStore"><path codeLine="113" d="M2003.31,878.47 C2003.31,896.48 2003.31,911.5 2003.31,931.68 " fill="none" id="TicketFiltersComponent-to-TicketListStore" style="stroke:#181818;stroke-width:1.0;"/><polygon fill="#181818" points="2003.31,937.68,2007.31,928.68,2003.31,932.68,1999.31,928.68,2003.31,937.68" style="stroke:#181818;stroke-width:1.0;"/></g><!--link TicketListComponent to TicketCardComponent--><g id="link_TicketListComponent_TicketCardComponent"><path codeLine="114" d="M1809.19,540.21 C1754.67,573.75 1695.4399,610.1854 1651.6799,637.1154 " fill="none" id="TicketListComponent-to-TicketCardComponent" style="stroke:#181818;stroke-width:1.0;"/><polygon fill="#181818" points="1646.57,640.26,1656.3313,638.9496,1650.8283,637.6395,1652.1384,632.1364,1646.57,640.26" style="stroke:#181818;stroke-width:1.0;"/></g><!--link TicketListComponent to TicketsComponent--><g id="link_TicketListComponent_TicketsComponent"><path codeLine="115" d="M1901.27,540.21 C1900.09,567.51 1899.9652,592.8251 1901.7552,618.0451 " fill="none" id="TicketListComponent-to-TicketsComponent" style="stroke:#181818;stroke-width:1.0;"/><polygon fill="#181818" points="1902.18,624.03,1905.5328,614.7694,1901.826,619.0425,1897.5529,615.3358,1902.18,624.03" style="stroke:#181818;stroke-width:1.0;"/></g><!--link TicketsComponent to TicketListComponent--><g id="link_TicketsComponent_TicketListComponent"><path codeLine="118" d="M1925.1,624.03 C1927,598.81 1927.5944,573.5037 1926.3444,546.2037 " fill="none" id="TicketsComponent-to-TicketListComponent" style="stroke:#181818;stroke-width:1.0;"/><polygon fill="#181818" points="1926.07,540.21,1922.4858,549.3835,1926.2987,545.2048,1930.4775,549.0176,1926.07,540.21" style="stroke:#181818;stroke-width:1.0;"/></g><!--link TicketsComponent to TicketFiltersComponent--><g id="link_TicketsComponent_TicketFiltersComponent"><path codeLine="117" d="M1941.05,721.52 C1952,740.37 1961.5462,756.7918 1972.4962,775.6418 " fill="none" id="TicketsComponent-to-TicketFiltersComponent" style="stroke:#181818;stroke-width:1.0;"/><polygon fill="#181818" points="1975.51,780.83,1974.4481,771.0386,1972.9985,776.5065,1967.5305,775.057,1975.51,780.83" style="stroke:#181818;stroke-width:1.0;"/></g><!--link TicketsComponent to TicketListStore--><g id="link_TicketsComponent_TicketListStore"><path codeLine="119" d="M1894.65,721.41 C1880.94,763.72 1867.64,826.66 1886.31,878.12 C1894.04,899.42 1902.9173,914.9876 1916.9673,933.2176 " fill="none" id="TicketsComponent-to-TicketListStore" style="stroke:#181818;stroke-width:1.0;"/><polygon fill="#181818" points="1920.63,937.97,1918.3042,928.3997,1917.5778,934.0097,1911.9678,933.2833,1920.63,937.97" style="stroke:#181818;stroke-width:1.0;"/></g><!--SRC=[hLRDRk8m4BxdARodPbNn0X6Ar0AjLkfkKU5MzU0aKx1gR6GxI6otxxxZE0bnS48hzSBFp3V_tqpoeu1N9e0yBMRhcp_t3mkISwfr59q4D_lzJExsKe0mv3twy7IbsQv07LWEg2Bacd2vOIBUqoENj4WgmDBz-PcGnqmZc6OSfk_4o3SG2T56CR4X7sd0iv7A-PsqQBOHb4zhetz4b9od5O1fQu8vifmQmD0v9btYhsac9GSgqfEVEUIoy33hZhZZzffeC9KkzjDr42pf85bH0OlAE815KC3xvMQrdX4bInCt8gzDSwgtcQIgyAUmmQnP_WPcHJdenmEeDTj1t1l1yniSconVlD9s6QYFj75rW_Pq0qk50MwFpl7wkF-wFozrvqSF9AwnBOhkT5BZ7fWsoqhY1tNQvvVKDvy3vJeUW-OAa2TE5flgguaLCWicRvFgahIWXhOSxOQRaAOQJtaggY6deRp5kBOvZUM49MojyYXjTTZei1AKacfuRwuhwxRNc8nXeVI2v5kXqr-YUnnin5UfTWcvmyzx9SjzX-XTKkSSGomEQ1Q3_Kp8Rrbgg2JZJ1yyHYV45ikeiydjxuJSKWsLUCuKv8OTmBMEPi0RfheH8A-JdYlBzGLEutp6pYLAfbSPLLVfjmsasoeajGs1ctU-S-S916XQBKD_J2DS_SRy0zdSCMv0wS_GHeeLK9LllNP8yGHubST2MEA6wsqAhNTo0ols5-VjLgqLUe9wALk9pM19aS_KC2aQzg9aXBmkxAp7tigxTtbygrddH7soNVG0_fgDNhcXHC-6e-sHI_fNx_FDy8RPWYxV6k_TOp99oHC-2K4zbePZiwBkwuVLjYyDqTbpqQhzhRw4QU96lGULHVKRCGZnLs_SrIWio8Kewf_WWIxuWA4- -AXW0RqRwtchqus2H-VaSHPexjbD66wolzlZReUmdOB2EzQ1-bK5K-ndFuOD3dgqxly0]--></g></svg>